<svg width="228" height="26" viewBox="0 0 228 26" fill="none" xmlns="http://www.w3.org/2000/svg">
<path d="M220.25 25.8132C219.035 25.8132 217.806 25.6128 216.565 25.212C215.324 24.7983 214.529 24.3974 214.18 24.0096L214.684 20.8871C215.124 21.3138 215.854 21.6823 216.875 21.9926C217.91 22.3029 218.964 22.4581 220.037 22.4581C220.812 22.4581 221.343 22.3611 221.627 22.1671C221.924 21.9732 222.073 21.7017 222.073 21.3526C222.073 21.0164 221.814 20.7191 221.297 20.4605C220.78 20.189 219.94 19.8787 218.776 19.5296C215.764 18.6245 214.257 16.7498 214.257 13.9053C214.257 12.7417 214.593 11.7461 215.266 10.9187C215.938 10.0783 216.798 9.47058 217.845 9.09563C218.892 8.72068 220.063 8.5332 221.355 8.5332C223.566 8.5332 225.195 8.94048 226.243 9.75502C226.475 9.97482 226.592 10.0847 226.592 10.0847L225.738 12.8581C224.885 12.0176 223.709 11.5974 222.209 11.5974C220.981 11.5974 220.366 11.9595 220.366 12.6835C220.366 12.8904 220.412 13.0649 220.502 13.2071C220.593 13.3364 220.741 13.4528 220.948 13.5562C221.168 13.6467 221.381 13.7243 221.588 13.789C221.795 13.8407 222.086 13.9183 222.461 14.0217C222.836 14.1122 223.159 14.1962 223.431 14.2738C224.943 14.7781 226.042 15.4892 226.728 16.4071C227.413 17.3251 227.755 18.4694 227.755 19.8399C227.755 23.8221 225.254 25.8132 220.25 25.8132Z" fill="white"/>
<path d="M205.988 25.8132C204.773 25.8132 203.545 25.6128 202.303 25.212C201.062 24.7983 200.267 24.3974 199.918 24.0096L200.422 20.8871C200.862 21.3138 201.592 21.6823 202.614 21.9926C203.648 22.3029 204.702 22.4581 205.775 22.4581C206.551 22.4581 207.081 22.3611 207.365 22.1671C207.663 21.9732 207.811 21.7017 207.811 21.3526C207.811 21.0164 207.553 20.7191 207.036 20.4605C206.518 20.189 205.678 19.8787 204.514 19.5296C201.502 18.6245 199.996 16.7498 199.996 13.9053C199.996 12.7417 200.332 11.7461 201.004 10.9187C201.676 10.0783 202.536 9.47058 203.583 9.09563C204.631 8.72068 205.801 8.5332 207.094 8.5332C209.305 8.5332 210.934 8.94048 211.981 9.75502C212.214 9.97482 212.33 10.0847 212.33 10.0847L211.477 12.8581C210.623 12.0176 209.447 11.5974 207.947 11.5974C206.719 11.5974 206.105 11.9595 206.105 12.6835C206.105 12.8904 206.15 13.0649 206.24 13.2071C206.331 13.3364 206.48 13.4528 206.686 13.5562C206.906 13.6467 207.12 13.7243 207.326 13.789C207.533 13.8407 207.824 13.9183 208.199 14.0217C208.574 14.1122 208.897 14.1962 209.169 14.2738C210.682 14.7781 211.781 15.4892 212.466 16.4071C213.151 17.3251 213.494 18.4694 213.494 19.8399C213.494 23.8221 210.992 25.8132 205.988 25.8132Z" fill="white"/>
<path d="M193.017 23.6799L192.823 23.8932C192.694 24.0484 192.494 24.2294 192.222 24.4362C191.964 24.6431 191.66 24.85 191.311 25.0568C190.974 25.2637 190.561 25.4383 190.069 25.5805C189.578 25.7356 189.074 25.8132 188.557 25.8132C185.066 25.8132 183.32 24.0871 183.32 20.635C183.32 19.9627 183.443 19.3486 183.689 18.7926C183.934 18.2237 184.251 17.7453 184.639 17.3574C185.027 16.9696 185.492 16.6269 186.035 16.3296C186.578 16.0193 187.122 15.7801 187.665 15.612C188.221 15.431 188.802 15.2823 189.41 15.1659C190.018 15.0496 190.561 14.972 191.039 14.9332C191.517 14.8944 191.976 14.875 192.416 14.875V14.5259C192.416 13.7372 192.203 13.1813 191.776 12.8581C191.362 12.5348 190.69 12.3732 189.759 12.3732C188.957 12.3732 188.124 12.4702 187.257 12.6641C186.391 12.8451 185.712 13.0649 185.221 13.3235L183.98 10.6859C184.859 10.117 186.003 9.61926 187.412 9.1926C188.822 8.753 190.257 8.5332 191.718 8.5332C193.011 8.5332 194.077 8.6625 194.918 8.92108C195.758 9.16674 196.437 9.5934 196.954 10.2011C197.484 10.7958 197.859 11.5587 198.079 12.4896C198.299 13.4075 198.409 14.5776 198.409 15.9999V23.8932L198.952 25.4059H193.638L193.017 23.6799ZM191.485 22.3999C191.653 22.3999 191.808 22.3675 191.951 22.3029C192.106 22.2253 192.222 22.1542 192.3 22.0896C192.377 22.012 192.416 21.9732 192.416 21.9732V17.3187C191.627 17.3187 191 17.5385 190.535 17.9781C190.069 18.4047 189.837 19.0706 189.837 19.9756C189.837 21.5918 190.386 22.3999 191.485 22.3999Z" fill="white"/>
<path d="M175.734 25.4061V3.47151L174.57 2.77333V0.969698L180.796 0H182.056V25.4061H175.734Z" fill="white"/>
<path d="M174.004 23.7971L173.829 24.0104C173.7 24.1397 173.48 24.3078 173.17 24.5147C172.872 24.7086 172.51 24.909 172.084 25.1159C171.67 25.3098 171.114 25.4714 170.416 25.6007C169.718 25.7429 168.968 25.814 168.166 25.814C166.472 25.814 165.024 25.5361 163.822 24.9801C162.62 24.4112 161.676 23.5902 160.99 22.5171C160.318 21.431 159.833 20.2092 159.536 18.8516C159.239 17.4811 159.09 15.8973 159.09 14.1001C159.09 12.1866 159.239 10.5381 159.536 9.15465C159.833 7.75829 160.325 6.53647 161.01 5.4892C161.708 4.429 162.665 3.63385 163.88 3.10374C165.095 2.57364 166.576 2.30859 168.321 2.30859C169.123 2.30859 169.873 2.37971 170.571 2.52193C171.282 2.66415 171.838 2.82576 172.239 3.00678C172.653 3.18779 173.021 3.39465 173.344 3.62738C173.681 3.86011 173.887 4.02172 173.965 4.11223C174.056 4.20273 174.12 4.27385 174.159 4.32556L173.868 8.78617H170.92L169.912 6.47829C169.679 6.41364 169.485 6.38132 169.33 6.38132C168.464 6.38132 167.798 6.58172 167.332 6.98253C166.867 7.37041 166.511 8.1397 166.266 9.29041C166.02 10.4282 165.897 12.0702 165.897 14.2165C165.897 15.4965 165.975 16.6149 166.13 17.5716C166.298 18.5284 166.498 19.2654 166.731 19.7825C166.964 20.2868 167.242 20.694 167.565 21.0044C167.888 21.3147 168.179 21.5151 168.438 21.6056C168.696 21.6831 168.974 21.7219 169.272 21.7219C169.931 21.7219 170.623 21.6444 171.347 21.4892C172.071 21.3211 172.666 21.069 173.131 20.7328L174.004 23.7971Z" fill="white"/>
<path d="M153.346 25.4058H147.082V12.8579L145.918 12.1403V9.94879L150.088 8.92091H151.659L152.221 13.5367C152.751 10.369 154.451 8.78516 157.322 8.78516C157.645 8.78516 157.981 8.84334 158.33 8.9597L157.671 15.8639C157.399 15.6183 156.804 15.4955 155.886 15.4955C154.568 15.4955 153.721 15.8446 153.346 16.5427V25.4058Z" fill="white"/>
<path d="M139.084 15.3793C139.084 13.7372 139 12.5736 138.832 11.8884C138.664 11.2031 138.354 10.8605 137.901 10.8605C137.513 10.8605 137.197 10.9316 136.951 11.0738C136.705 11.2031 136.524 11.4164 136.408 11.7138C136.292 11.9983 136.214 12.2956 136.175 12.6059C136.149 12.9033 136.136 13.2847 136.136 13.7502V15.3793H139.084ZM137.533 25.8132C136.085 25.8132 134.824 25.5934 133.751 25.1538C132.691 24.7142 131.85 24.1001 131.23 23.3114C130.622 22.5227 130.176 21.637 129.892 20.6544C129.607 19.6589 129.465 18.5534 129.465 17.3381C129.465 14.4419 130.202 12.2504 131.676 10.7635C133.15 9.27664 135.212 8.5332 137.862 8.5332C140.409 8.5332 142.233 9.13441 143.332 10.3368C144.431 11.5263 144.98 13.4463 144.98 16.0968V18.2496H136.117V18.6181C136.117 19.3809 136.195 20.008 136.35 20.4993C136.518 20.9906 136.757 21.3526 137.067 21.5853C137.378 21.8181 137.694 21.9732 138.018 22.0508C138.341 22.1284 138.735 22.1671 139.201 22.1671C139.653 22.1671 140.138 22.109 140.655 21.9926C141.185 21.8762 141.715 21.6952 142.245 21.4496C142.788 21.2039 143.241 20.913 143.603 20.5768L144.747 22.5356C144.269 23.3114 143.564 23.9643 142.633 24.4944C141.715 25.0116 140.83 25.3607 139.976 25.5417C139.123 25.7227 138.308 25.8132 137.533 25.8132Z" fill="white"/>
<path d="M123.836 25.8133C122.091 25.8133 120.869 25.2896 120.171 24.2423C119.485 23.1951 119.143 21.4238 119.143 18.9284V12.3345H117.805V9.63871L120.093 8.92113L122.071 4.40234H125.485V8.92113H128.665V12.3345H125.427V19.549C125.427 20.5834 125.575 21.2686 125.873 21.6048C126.17 21.9409 126.629 22.109 127.25 22.109C127.521 22.109 127.767 22.0767 127.987 22.012C128.206 21.9474 128.387 21.8569 128.53 21.7405V24.3781C128.336 24.572 128.083 24.766 127.773 24.9599C127.463 25.1409 126.946 25.3284 126.222 25.5223C125.511 25.7163 124.715 25.8133 123.836 25.8133Z" fill="white"/>
<path d="M110.137 25.8132C108.921 25.8132 107.693 25.6128 106.452 25.212C105.211 24.7983 104.415 24.3974 104.066 24.0096L104.571 20.8871C105.01 21.3138 105.741 21.6823 106.762 21.9926C107.797 22.3029 108.85 22.4581 109.923 22.4581C110.699 22.4581 111.229 22.3611 111.514 22.1671C111.811 21.9732 111.96 21.7017 111.96 21.3526C111.96 21.0164 111.701 20.7191 111.184 20.4605C110.667 20.189 109.826 19.8787 108.663 19.5296C105.65 18.6245 104.144 16.7498 104.144 13.9053C104.144 12.7417 104.48 11.7461 105.152 10.9187C105.825 10.0783 106.685 9.47058 107.732 9.09563C108.779 8.72068 109.949 8.5332 111.242 8.5332C113.453 8.5332 115.082 8.94048 116.129 9.75502C116.362 9.97482 116.479 10.0847 116.479 10.0847L115.625 12.8581C114.772 12.0176 113.595 11.5974 112.095 11.5974C110.867 11.5974 110.253 11.9595 110.253 12.6835C110.253 12.8904 110.298 13.0649 110.389 13.2071C110.479 13.3364 110.628 13.4528 110.835 13.5562C111.055 13.6467 111.268 13.7243 111.475 13.789C111.682 13.8407 111.973 13.9183 112.348 14.0217C112.723 14.1122 113.046 14.1962 113.317 14.2738C114.83 14.7781 115.929 15.4892 116.614 16.4071C117.3 17.3251 117.642 18.4694 117.642 19.8399C117.642 23.8221 115.14 25.8132 110.137 25.8132Z" fill="white"/>
<path d="M97.1657 23.6799L96.9718 23.8932C96.8425 24.0484 96.6421 24.2294 96.3706 24.4362C96.112 24.6431 95.8081 24.85 95.4591 25.0568C95.1229 25.2637 94.7092 25.4383 94.2178 25.5805C93.7265 25.7356 93.2223 25.8132 92.7051 25.8132C89.2142 25.8132 87.4688 24.0871 87.4688 20.635C87.4688 19.9627 87.5916 19.3486 87.8372 18.7926C88.0829 18.2237 88.3997 17.7453 88.7875 17.3574C89.1754 16.9696 89.6409 16.6269 90.1839 16.3296C90.7269 16.0193 91.27 15.7801 91.813 15.612C92.369 15.431 92.9508 15.2823 93.5584 15.1659C94.1661 15.0496 94.7092 14.972 95.1875 14.9332C95.6659 14.8944 96.1249 14.875 96.5645 14.875V14.5259C96.5645 13.7372 96.3512 13.1813 95.9245 12.8581C95.5108 12.5348 94.8384 12.3732 93.9075 12.3732C93.1059 12.3732 92.272 12.4702 91.4057 12.6641C90.5395 12.8451 89.8607 13.0649 89.3694 13.3235L88.1281 10.6859C89.0073 10.117 90.1516 9.61926 91.5609 9.1926C92.9702 8.753 94.4053 8.5332 95.8663 8.5332C97.1593 8.5332 98.2259 8.6625 99.0663 8.92108C99.9067 9.16674 100.586 9.5934 101.103 10.2011C101.633 10.7958 102.008 11.5587 102.228 12.4896C102.447 13.4075 102.557 14.5776 102.557 15.9999V23.8932L103.1 25.4059H97.7863L97.1657 23.6799ZM95.6336 22.3999C95.8017 22.3999 95.9568 22.3675 96.0991 22.3029C96.2542 22.2253 96.3706 22.1542 96.4481 22.0896C96.5257 22.012 96.5645 21.9732 96.5645 21.9732V17.3187C95.7758 17.3187 95.1488 17.5385 94.6833 17.9781C94.2178 18.4047 93.9851 19.0706 93.9851 19.9756C93.9851 21.5918 94.5346 22.3999 95.6336 22.3999Z" fill="white"/>
<path d="M67.3063 25.4055H61.4688L63.2724 2.67578H72.3681L74.0748 10.2976L74.8506 14.157L75.5875 10.317L77.1003 2.67578H85.2069L86.8748 25.4055H80.8433L79.8542 12.0431L79.6215 7.11699L76.6542 23.1364H71.5924L68.0239 7.11699L67.9075 12.0431L67.3063 25.4055Z" fill="white"/>
<path d="M58.4342 25.4067H52.1312V12.3352H50.25V9.75584L52.2088 8.9219V7.23463C52.2088 5.92877 52.3898 4.79746 52.7518 3.84069C53.1138 2.88392 53.6181 2.14049 54.2645 1.61038C54.9239 1.08028 55.648 0.698869 56.4367 0.466142C57.2383 0.220485 58.1304 0.0976562 59.113 0.0976562C59.9922 0.0976562 60.8197 0.21402 61.5955 0.446748C62.3712 0.679474 62.8561 0.892808 63.05 1.08675L62.313 4.03463C61.6924 3.72432 61.0524 3.56917 60.393 3.56917C60.225 3.56917 60.0698 3.5821 59.9276 3.60796C58.932 3.76311 58.4342 4.60998 58.4342 6.14857V8.9219H60.9361V12.3352H58.4342V25.4067Z" fill="white"/>
<path d="M43.6878 15.3793C43.6878 13.7372 43.6037 12.5736 43.4356 11.8884C43.2676 11.2031 42.9572 10.8605 42.5047 10.8605C42.1168 10.8605 41.8001 10.9316 41.5544 11.0738C41.3088 11.2031 41.1278 11.4164 41.0114 11.7138C40.895 11.9983 40.8175 12.2956 40.7787 12.6059C40.7528 12.9033 40.7399 13.2847 40.7399 13.7502V15.3793H43.6878ZM42.1362 25.8132C40.6882 25.8132 39.4276 25.5934 38.3544 25.1538C37.2942 24.7142 36.4538 24.1001 35.8332 23.3114C35.2255 22.5227 34.7795 21.637 34.495 20.6544C34.2106 19.6589 34.0684 18.5534 34.0684 17.3381C34.0684 14.4419 34.8053 12.2504 36.2793 10.7635C37.7532 9.27664 39.8154 8.5332 42.4659 8.5332C45.013 8.5332 46.836 9.13441 47.935 10.3368C49.034 11.5263 49.5835 13.4463 49.5835 16.0968V18.2496H40.7205V18.6181C40.7205 19.3809 40.7981 20.008 40.9532 20.4993C41.1213 20.9906 41.3605 21.3526 41.6708 21.5853C41.9811 21.8181 42.2979 21.9732 42.6211 22.0508C42.9443 22.1284 43.3387 22.1671 43.8041 22.1671C44.2566 22.1671 44.7415 22.109 45.2587 21.9926C45.7888 21.8762 46.3189 21.6952 46.849 21.4496C47.392 21.2039 47.8445 20.913 48.2065 20.5768L49.3508 22.5356C48.8724 23.3114 48.1678 23.9643 47.2368 24.4944C46.3189 25.0116 45.4332 25.3607 44.5799 25.5417C43.7265 25.7227 42.912 25.8132 42.1362 25.8132Z" fill="white"/>
<path d="M22.8671 25.4061H16.5835V3.47151L15.4198 2.77333V0.969698L21.6453 0H22.9059V11.423L23.1386 11.1321C23.2938 10.9253 23.52 10.6796 23.8174 10.3952C24.1277 10.1107 24.4703 9.83273 24.8453 9.56121C25.2202 9.27677 25.6663 9.03758 26.1835 8.84364C26.7136 8.63677 27.2307 8.53333 27.735 8.53333C29.5063 8.53333 30.754 9.01818 31.478 9.98788C32.215 10.9576 32.5835 12.5802 32.5835 14.8558C32.5835 14.9333 32.5835 15.0497 32.5835 15.2048C32.5705 15.36 32.5641 15.4828 32.5641 15.5733V25.4061H26.1641V15.0109C26.2028 13.7956 25.6857 13.1879 24.6125 13.1879C24.5091 13.1879 24.4057 13.1943 24.3022 13.2073C24.2117 13.2202 24.1148 13.2525 24.0113 13.3042C23.9079 13.356 23.8239 13.3947 23.7592 13.4206C23.7075 13.4465 23.6235 13.4982 23.5071 13.5758C23.4037 13.6533 23.3325 13.7051 23.2938 13.7309C23.2679 13.7568 23.1903 13.8214 23.061 13.9248C22.9447 14.0283 22.88 14.0865 22.8671 14.0994V25.4061Z" fill="white"/>
<path d="M14.9139 23.7971L14.7394 24.0104C14.6101 24.1397 14.3903 24.3078 14.08 24.5147C13.7826 24.7086 13.4206 24.909 12.9939 25.1159C12.5802 25.3098 12.0242 25.4714 11.3261 25.6007C10.6279 25.7429 9.87798 25.814 9.07636 25.814C7.38263 25.814 5.93455 25.5361 4.73212 24.9801C3.5297 24.4112 2.58586 23.5902 1.90061 22.5171C1.22828 21.431 0.743434 20.2092 0.446061 18.8516C0.148687 17.4811 0 15.8973 0 14.1001C0 12.1866 0.148687 10.5381 0.446061 9.15465C0.743434 7.75829 1.23475 6.53647 1.92 5.4892C2.61818 4.429 3.57495 3.63385 4.7903 3.10374C6.00566 2.57364 7.48606 2.30859 9.23151 2.30859C10.0331 2.30859 10.783 2.37971 11.4812 2.52193C12.1923 2.66415 12.7483 2.82576 13.1491 3.00678C13.5628 3.18779 13.9313 3.39465 14.2545 3.62738C14.5907 3.86011 14.7976 4.02172 14.8752 4.11223C14.9657 4.20273 15.0303 4.27385 15.0691 4.32556L14.7782 8.78617H11.8303L10.8218 6.47829C10.5891 6.41364 10.3952 6.38132 10.24 6.38132C9.37374 6.38132 8.70788 6.58172 8.24242 6.98253C7.77697 7.37041 7.42141 8.1397 7.17576 9.29041C6.9301 10.4282 6.80727 12.0702 6.80727 14.2165C6.80727 15.4965 6.88485 16.6149 7.04 17.5716C7.20808 18.5284 7.40848 19.2654 7.64121 19.7825C7.87394 20.2868 8.15192 20.694 8.47515 21.0044C8.79838 21.3147 9.08929 21.5151 9.34788 21.6056C9.60646 21.6831 9.88444 21.7219 10.1818 21.7219C10.8412 21.7219 11.5329 21.6444 12.257 21.4892C12.981 21.3211 13.5758 21.069 14.0412 20.7328L14.9139 23.7971Z" fill="white"/>
</svg>
