<svg width="115" height="48" viewBox="0 0 115 48" fill="none" xmlns="http://www.w3.org/2000/svg">
<path d="M115 24L49 24" stroke="#4CAF50" stroke-width="3" stroke-dasharray="6 6"/>
<rect width="48" height="48" rx="8" fill="#4CAF50"/>
<path d="M18.108 34V32.2102L24.8295 24.8523C25.6184 23.9905 26.268 23.2415 26.7784 22.6051C27.2888 21.9621 27.6667 21.3589 27.9119 20.7955C28.1638 20.2254 28.2898 19.6288 28.2898 19.0057C28.2898 18.2898 28.1174 17.67 27.7727 17.1463C27.4347 16.6226 26.9706 16.2183 26.3807 15.9332C25.7907 15.6482 25.1278 15.5057 24.392 15.5057C23.6098 15.5057 22.9271 15.6681 22.3438 15.9929C21.767 16.3111 21.3196 16.7585 21.0014 17.3352C20.6899 17.9119 20.5341 18.5881 20.5341 19.3636H18.1875C18.1875 18.1705 18.4626 17.1231 19.0128 16.2216C19.563 15.3201 20.312 14.6174 21.2599 14.1136C22.2145 13.6098 23.285 13.358 24.4716 13.358C25.6648 13.358 26.7221 13.6098 27.6435 14.1136C28.5649 14.6174 29.2874 15.2969 29.8111 16.152C30.3348 17.0071 30.5966 17.9583 30.5966 19.0057C30.5966 19.7547 30.4607 20.4872 30.1889 21.2031C29.9238 21.9124 29.4598 22.7045 28.7969 23.5795C28.1406 24.4479 27.2292 25.5085 26.0625 26.7614L21.4886 31.6534V31.8125H30.9545V34H18.108Z" fill="white"/>
</svg>
