<svg width="114" height="48" viewBox="0 0 114 48" fill="none" xmlns="http://www.w3.org/2000/svg">
<path d="M114 24L48 24" stroke="#4CAF50" stroke-width="3" stroke-dasharray="6 6"/>
<rect width="48" height="48" rx="8" fill="#4CAF50"/>
<path d="M23.9886 34.2784C22.6761 34.2784 21.5062 34.053 20.4787 33.6023C19.4579 33.1515 18.6458 32.5251 18.0426 31.723C17.446 30.9143 17.1212 29.9763 17.0682 28.9091H19.5739C19.6269 29.5653 19.8523 30.1321 20.25 30.6094C20.6477 31.08 21.1681 31.4446 21.8111 31.7031C22.4541 31.9616 23.1667 32.0909 23.9489 32.0909C24.8239 32.0909 25.5994 31.9384 26.2756 31.6335C26.9517 31.3286 27.482 30.9044 27.8665 30.3608C28.2509 29.8172 28.4432 29.1875 28.4432 28.4716C28.4432 27.7225 28.2576 27.063 27.8864 26.4929C27.5152 25.9162 26.9716 25.4654 26.2557 25.1406C25.5398 24.8158 24.6648 24.6534 23.6307 24.6534H22V22.4659H23.6307C24.4394 22.4659 25.1487 22.3201 25.7585 22.0284C26.375 21.7367 26.8556 21.3258 27.2003 20.7955C27.5516 20.2652 27.7273 19.642 27.7273 18.9261C27.7273 18.2367 27.5748 17.6368 27.2699 17.1264C26.965 16.616 26.5341 16.2183 25.9773 15.9332C25.4271 15.6482 24.7775 15.5057 24.0284 15.5057C23.3258 15.5057 22.6629 15.6349 22.0398 15.8935C21.4233 16.1454 20.9195 16.5133 20.5284 16.9972C20.1373 17.4744 19.9252 18.0511 19.892 18.7273H17.5057C17.5455 17.66 17.867 16.7254 18.4702 15.9233C19.0734 15.1146 19.8622 14.4848 20.8366 14.0341C21.8177 13.5833 22.8949 13.358 24.0682 13.358C25.3277 13.358 26.4081 13.6132 27.3097 14.1236C28.2112 14.6274 28.9039 15.2936 29.3878 16.1222C29.8717 16.9508 30.1136 17.8456 30.1136 18.8068C30.1136 19.9536 29.812 20.9313 29.2088 21.7401C28.6122 22.5488 27.8002 23.1089 26.7727 23.4205V23.5795C28.0587 23.7917 29.063 24.3385 29.7855 25.2202C30.508 26.0952 30.8693 27.179 30.8693 28.4716C30.8693 29.5786 30.5677 30.5729 29.9645 31.4545C29.3679 32.3295 28.5526 33.0189 27.5185 33.5227C26.4844 34.0265 25.3078 34.2784 23.9886 34.2784Z" fill="white"/>
</svg>
